# xmcd
#
# Track frame offsets:
#	150
#	17490
#	33377
#	49135
#	66132
#	83328
#	97024
#	113028
#	128738
#	143937
#	160108
#	176526
#
# Disc length: 2631 seconds
#
# Revision: 1
# Processed by: cddbd v1.5.2PL0 Copyright (c) Steve Scherf et al.
# Submitted via: audiograbber 1.83.01
#
DISCID=920a450c
DTITLE=Lorie - 2LORENMOI
DYEAR=2008
DGENRE=Blues
TTITLE0=2LORENMOI
TTITLE1=Je vais vite
TTITLE2=Play
TTITLE3=On ne grandit vraiment jamais
TTITLE4=L'alcalmie
TTITLE5=Avance encore
TTITLE6=Le bonheur à tout prix
TTITLE7=1 garçon
TTITLE8=Pas un ange
TTITLE9=L'amour autrement
TTITLE10=La Reine
TTITLE11=Loin des yeux
EXTD=
EXTT0=
EXTT1=
EXTT2=
EXTT3=
EXTT4=
EXTT5=
EXTT6=
EXTT7=
EXTT8=
EXTT9=
EXTT10=
EXTT11=
PLAYORDER=
